<svg xmlns="http://www.w3.org/2000/svg" xmlns:xlink="http://www.w3.org/1999/xlink" viewBox="0 0 1500 1500" width="1500" height="1500" preserveAspectRatio="xMidYMid meet" style="width: 100%; height: 100%; transform: translate3d(0px, 0px, 0px); content-visibility: visible;"><defs><clipPath id="__lottie_element_225"><rect width="1500" height="1500" x="0" y="0"></rect></clipPath><symbol id="__lottie_element_233"><g><g id="xOJMCmPb_V" style="display: none;"><g id="2wjFVooX5U"><path id="BKZLduRMkn"></path><path stroke-linecap="butt" stroke-linejoin="miter" fill-opacity="0" stroke-miterlimit="10" id="4485CU4L7J"></path></g></g></g></symbol><symbol id="__lottie_element_229"><g><g id="-BQMJ5euMl" transform="matrix(1,0,0,1,74.489013671875,74.489013671875)" opacity="1" style="display: block;"><g id="qb890mmj3h" opacity="1" transform="matrix(1,0,0,1,744.406982421875,682.3779907226562)"><path id="WhUMZaSzBy" fill="rgb(255,255,255)" fill-opacity="1" d=" M183.29800415039062,256.2770080566406 C183.29800415039062,256.2770080566406 -263.947998046875,172.0679931640625 -263.947998046875,172.0679931640625 C-304.5899963378906,164.41600036621094 -331.3340148925781,125.26499938964844 -323.6820068359375,84.62300109863281 C-323.6820068359375,84.62300109863281 -270.7430114746094,-196.54299926757812 -270.7430114746094,-196.54299926757812 C-263.09100341796875,-237.18499755859375 -223.94000244140625,-263.9289855957031 -183.29800415039062,-256.2760009765625 C-183.29800415039062,-256.2760009765625 263.947998046875,-172.06700134277344 263.947998046875,-172.06700134277344 C304.5899963378906,-164.4149932861328 331.3340148925781,-125.26399993896484 323.6820068359375,-84.62200164794922 C323.6820068359375,-84.62200164794922 270.74200439453125,196.54400634765625 270.74200439453125,196.54400634765625 C263.0899963378906,237.18600463867188 223.94000244140625,263.9289855957031 183.29800415039062,256.2770080566406z"></path><path stroke-linecap="butt" stroke-linejoin="miter" fill-opacity="0" stroke-miterlimit="10" id="gvy70pIIch" stroke="rgb(189,15,223)" stroke-opacity="1" stroke-width="60" d=" M183.29800415039062,256.2770080566406 C183.29800415039062,256.2770080566406 -263.947998046875,172.0679931640625 -263.947998046875,172.0679931640625 C-304.5899963378906,164.41600036621094 -331.3340148925781,125.26499938964844 -323.6820068359375,84.62300109863281 C-323.6820068359375,84.62300109863281 -270.7430114746094,-196.54299926757812 -270.7430114746094,-196.54299926757812 C-263.09100341796875,-237.18499755859375 -223.94000244140625,-263.9289855957031 -183.29800415039062,-256.2760009765625 C-183.29800415039062,-256.2760009765625 263.947998046875,-172.06700134277344 263.947998046875,-172.06700134277344 C304.5899963378906,-164.4149932861328 331.3340148925781,-125.26399993896484 323.6820068359375,-84.62200164794922 C323.6820068359375,-84.62200164794922 270.74200439453125,196.54400634765625 270.74200439453125,196.54400634765625 C263.0899963378906,237.18600463867188 223.94000244140625,263.9289855957031 183.29800415039062,256.2770080566406z"></path></g></g></g></symbol><filter id="__lottie_element_241" filterUnits="objectBoundingBox" x="0%" y="0%" width="100%" height="100%"><feComponentTransfer in="SourceGraphic"><feFuncA type="table" tableValues="1.0 0.0"></feFuncA></feComponentTransfer></filter><mask id="__lottie_element_229_2" mask-type="alpha"><g filter="url(#__lottie_element_241)"><rect width="1500" height="1500" x="0" y="0" fill="#ffffff" opacity="0"></rect><use xlink:href="#__lottie_element_229"></use></g></mask><filter id="__lottie_element_242" filterUnits="objectBoundingBox" x="0%" y="0%" width="100%" height="100%"><feComponentTransfer in="SourceGraphic"><feFuncA type="table" tableValues="1.0 0.0"></feFuncA></feComponentTransfer></filter><mask id="__lottie_element_233_2" mask-type="alpha"><g filter="url(#__lottie_element_242)"><rect width="1500" height="1500" x="0" y="0" fill="#ffffff" opacity="0"></rect><use xlink:href="#__lottie_element_233"></use></g></mask></defs><g clip-path="url(#__lottie_element_225)"><g mask="url(#__lottie_element_229_2)" style="display: block;"><g id="ayRxNanjBF" transform="matrix(0.9291325807571411,-0.36974674463272095,0.36974674463272095,0.9291325807571411,-249.4072265625,414.12872314453125)" opacity="1"><g id="ih-rj0DvpC" opacity="1" transform="matrix(1,0,0,1,744.406982421875,682.3779907226562)"><path stroke-linecap="butt" stroke-linejoin="miter" fill-opacity="0" stroke-miterlimit="10" id="PZUcSUUgDF" stroke="rgb(189,15,223)" stroke-opacity="1" stroke-width="50" d=" M183.29800415039062,256.2770080566406 C183.29800415039062,256.2770080566406 -263.947998046875,172.0679931640625 -263.947998046875,172.0679931640625 C-304.5899963378906,164.41600036621094 -331.3340148925781,125.26499938964844 -323.6820068359375,84.62300109863281 C-323.6820068359375,84.62300109863281 -270.7430114746094,-196.54299926757812 -270.7430114746094,-196.54299926757812 C-263.09100341796875,-237.18499755859375 -223.94000244140625,-263.9289855957031 -183.29800415039062,-256.2760009765625 C-183.29800415039062,-256.2760009765625 263.947998046875,-172.06700134277344 263.947998046875,-172.06700134277344 C304.5899963378906,-164.4149932861328 331.3340148925781,-125.26399993896484 323.6820068359375,-84.62200164794922 C323.6820068359375,-84.62200164794922 270.74200439453125,196.54400634765625 270.74200439453125,196.54400634765625 C263.0899963378906,237.18600463867188 223.94000244140625,263.9289855957031 183.29800415039062,256.2770080566406z"></path></g><g id="Q8Ue4VNaEi" opacity="1" transform="matrix(1,0,0,1,815.510986328125,855.958984375)"><path id="_-aor29Kpy" fill="rgb(189,15,223)" fill-opacity="1" d=" M57.24599838256836,-2.171999931335449 C58.44499969482422,29.444000244140625 33.78799819946289,56.04600143432617 2.171999931335449,57.244998931884766 C-29.444000244140625,58.44499969482422 -56.04600143432617,33.7869987487793 -57.24599838256836,2.171999931335449 C-58.44499969482422,-29.444000244140625 -33.78799819946289,-56.047000885009766 -2.171999931335449,-57.24599838256836 C29.444000244140625,-58.44499969482422 56.047000885009766,-33.78799819946289 57.24599838256836,-2.171999931335449z"></path></g><g id="bh3xYeQOpw" opacity="1" transform="matrix(1,0,0,1,723.2520141601562,783.0230102539062)"><path id="wvX9S0yxph" fill="rgb(189,15,223)" fill-opacity="1" d=" M-41.8129997253418,100.8949966430664 C-41.8129997253418,100.8949966430664 21.750999450683594,-56.99399948120117 21.750999450683594,-56.99399948120117 C21.750999450683594,-56.99399948120117 114.2229995727539,40.14099884033203 114.2229995727539,40.14099884033203 C114.2229995727539,40.14099884033203 203.30999755859375,-88.67900085449219 203.30999755859375,-88.67900085449219 C203.30999755859375,-88.67900085449219 306.7980041503906,16.763999938964844 306.7980041503906,16.763999938964844 C306.7980041503906,16.763999938964844 267.7749938964844,145.84800720214844 267.7749938964844,145.84800720214844 C267.7749938964844,145.84800720214844 48.73699951171875,112.94400024414062 48.73699951171875,112.94400024414062 C48.73699951171875,112.94400024414062 -41.8129997253418,100.8949966430664 -41.8129997253418,100.8949966430664z"></path></g></g></g><g mask="url(#__lottie_element_233_2)" style="display: block;"><g id="Uvqdhjf17r" transform="matrix(1,0,0,1,74.489013671875,74.489013671875)" opacity="1"><g id="N_csh46n2J" opacity="1" transform="matrix(1,0,0,1,744.406982421875,682.3779907226562)"><path stroke-linecap="butt" stroke-linejoin="miter" fill-opacity="0" stroke-miterlimit="10" id="id14SnO9o3" stroke="rgb(250,172,43)" stroke-opacity="1" stroke-width="50" d=" M183.29800415039062,256.2770080566406 C183.29800415039062,256.2770080566406 -263.947998046875,172.0679931640625 -263.947998046875,172.0679931640625 C-304.5899963378906,164.41600036621094 -331.3340148925781,125.26499938964844 -323.6820068359375,84.62300109863281 C-323.6820068359375,84.62300109863281 -270.7430114746094,-196.54299926757812 -270.7430114746094,-196.54299926757812 C-263.09100341796875,-237.18499755859375 -223.94000244140625,-263.9289855957031 -183.29800415039062,-256.2760009765625 C-183.29800415039062,-256.2760009765625 263.947998046875,-172.06700134277344 263.947998046875,-172.06700134277344 C304.5899963378906,-164.4149932861328 331.3340148925781,-125.26399993896484 323.6820068359375,-84.62200164794922 C323.6820068359375,-84.62200164794922 270.74200439453125,196.54400634765625 270.74200439453125,196.54400634765625 C263.0899963378906,237.18600463867188 223.94000244140625,263.9289855957031 183.29800415039062,256.2770080566406z"></path></g><g id="S-su4HhmPA" opacity="1" transform="matrix(1,0,0,1,675.510986328125,595.958984375)"><path id="PB5ZhEZCKW" fill="rgb(255,175,41)" fill-opacity="1" d=" M57.24599838256836,-2.171999931335449 C58.44499969482422,29.444000244140625 33.78799819946289,56.04600143432617 2.171999931335449,57.244998931884766 C-29.444000244140625,58.44499969482422 -56.04600143432617,33.7869987487793 -57.24599838256836,2.171999931335449 C-58.44499969482422,-29.444000244140625 -33.78799819946289,-56.047000885009766 -2.171999931335449,-57.24599838256836 C29.444000244140625,-58.44499969482422 56.047000885009766,-33.78799819946289 57.24599838256836,-2.171999931335449z"></path></g><g id="EyHEm7FqAW" opacity="1" transform="matrix(1,0,0,1,723.2520141601562,783.0230102539062)"><path id="1uq2cDh5Lf" fill="rgb(253,176,46)" fill-opacity="1" d=" M-298.9739990234375,11.472999572753906 C-298.9739990234375,11.472999572753906 -108.6500015258789,-80.90399932861328 -108.6500015258789,-80.90399932861328 C-108.6500015258789,-80.90399932861328 -22.871000289916992,11.414999961853027 -22.871000289916992,11.414999961853027 C-22.871000289916992,11.414999961853027 189.4669952392578,-145.8489990234375 189.4669952392578,-145.8489990234375 C189.4669952392578,-145.8489990234375 306.7980041503906,16.763999938964844 306.7980041503906,16.763999938964844 C306.7980041503906,16.763999938964844 267.7749938964844,145.84800720214844 267.7749938964844,145.84800720214844 C267.7749938964844,145.84800720214844 -306.7980041503906,48.95100021362305 -306.7980041503906,48.95100021362305 C-306.7980041503906,48.95100021362305 -298.9739990234375,11.472999572753906 -298.9739990234375,11.472999572753906z"></path></g></g></g><g id="01bDWse2D0" transform="matrix(1,0,0,1,74.489013671875,74.489013671875)" opacity="1" style="display: block;" class=""><g id="gxuETTCEUT" opacity="1" transform="matrix(1,0,0,1,675.510986328125,675.510986328125)"><path stroke-linecap="butt" stroke-linejoin="miter" fill-opacity="0" stroke-miterlimit="10" id="4p6lxreSUh" stroke="rgb(253,176,46)" stroke-opacity="1" stroke-width="44.181" d=" M0,565.0579833984375 C0,565.0579833984375 0,565.0579833984375 0,565.0579833984375 C-312.072998046875,565.0579833984375 -565.0579833984375,312.072998046875 -565.0579833984375,0 C-565.0579833984375,0 -565.0579833984375,-0.0010000000474974513 -565.0579833984375,-0.0010000000474974513 C-565.0579833984375,-312.0740051269531 -312.072998046875,-565.0579833984375 0,-565.0579833984375 C0,-565.0579833984375 0,-565.0579833984375 0,-565.0579833984375 C312.072998046875,-565.0579833984375 565.0579833984375,-312.0740051269531 565.0579833984375,-0.0010000000474974513 C565.0579833984375,-0.0010000000474974513 565.0579833984375,0 565.0579833984375,0 C565.0579833984375,312.072998046875 312.072998046875,565.0579833984375 0,565.0579833984375z"></path></g></g></g></svg>